<?xml version="1.0" encoding="UTF-8"?>
<svg width="752pt" height="752pt" version="1.1" viewBox="0 0 752 752" xmlns="http://www.w3.org/2000/svg">
 <path d="m587.58 396.89c-5.4492 53.508-31.02 102.95-71.535 138.32-40.516 35.371-92.953 54.031-146.71 52.207s-104.8-23.996-142.83-62.035c-38.027-38.035-60.184-89.094-61.992-142.85-1.8086-53.75 16.867-106.18 52.25-146.69 35.383-40.504 84.832-66.059 138.34-71.492 3.2734-0.36328 6.3555 1.6211 7.3828 4.7539 1.0273 3.1289-0.28125 6.5547-3.1367 8.1992-41.609 24.809-69.441 67.43-75.426 115.5-5.9844 48.074 10.555 96.215 44.812 130.46 34.262 34.25 82.41 50.77 130.48 44.773 48.07-6 90.68-33.848 115.47-75.465 1.6875-2.7656 5.0547-4.0078 8.1289-2.9922 3.0781 1.0156 5.0469 4.0156 4.7578 7.2383z"/>
</svg>
