<?xml version="1.0" encoding="UTF-8"?>
<svg width="752pt" height="752pt" version="1.1" viewBox="0 0 752 752" xmlns="http://www.w3.org/2000/svg">
 <g>
  <path d="m259.5 287.44c1.8945 1.8945 4.7344 2.8398 7.5781 2.8398h0.47266c2.8398 0 6.1562-1.4219 8.0508-3.7891 3.3164-3.7891 7.1055-7.5781 10.891-10.891 2.3672-1.8945 3.7891-5.2109 3.7891-8.0508 0-2.8398-0.94531-5.6836-2.8398-8.0508l-46.883-49.254c-4.2617-4.2617-10.891-4.7344-15.629-0.47266-5.2109 4.7344-10.891 9.9453-15.629 15.629-3.7891 3.7891-3.7891 10.895 0.47266 15.156z"/>
  <path d="m275.6 465.51c-1.8945-2.3672-5.2109-3.7891-8.0508-3.7891-3.3164 0-5.6836 0.94531-8.0508 2.8398l-49.254 46.883c-4.2617 4.2617-4.7344 10.891-0.94531 15.629 5.2109 5.6836 9.9453 10.891 15.629 15.629 1.8945 1.8945 4.7344 2.8398 7.1055 2.8398 2.8398 0 6.1562-0.94531 8.0508-3.3164l46.883-49.254c1.8945-2.3672 3.3164-5.2109 2.8398-8.0508 0-2.8398-1.4219-6.1562-3.7891-8.0508-3.3125-3.7812-7.1016-7.0977-10.418-11.359z"/>
  <path d="m492.5 464.56c-2.3672-1.8945-4.7344-3.3164-8.0508-2.8398-2.8398 0-6.1562 1.4219-8.0508 3.7891-3.3164 3.7891-7.1055 7.5781-10.891 10.891-2.3672 1.8945-3.7891 5.2109-3.7891 8.0508s0.94531 5.6836 2.8398 8.0508l46.883 49.254c2.3672 2.3672 5.2109 3.3164 8.0508 3.3164s5.2109-0.94531 7.1055-2.8398c5.6836-5.2109 10.891-10.418 15.629-15.629 3.7891-4.2617 3.7891-11.367-0.94531-15.629z"/>
  <path d="m359.9 238.19c2.3672 1.8945 5.2109 2.8398 8.5234 2.8398 5.2109-0.47266 10.418-0.47266 15.156 0h0.94531c2.8398 0 5.6836-0.94531 7.5781-2.8398 2.3672-1.8945 3.3164-4.7344 3.3164-7.5781l2.3672-67.719c0-6.1562-4.7344-11.367-10.418-11.367-7.1055-0.47266-14.68-0.47266-21.785 0-6.1562 0.47266-10.891 5.6836-10.418 11.367l1.8945 67.723c-0.47266 2.8398 0.94531 5.6836 2.8398 7.5742z"/>
  <path d="m238.19 392.1c1.8945-2.3672 3.3164-5.2109 2.8398-8.5234-0.47266-5.2109-0.47266-10.418 0-15.156 0.47266-3.3164-0.94531-6.1562-2.8398-8.5234-1.8945-2.3672-4.7344-3.3164-7.5781-3.7891l-67.719-1.8945h-0.47266c-6.1562 0-10.891 4.7344-11.367 10.891-0.47266 7.1055-0.47266 14.68 0 21.785 0.47266 5.6836 5.2109 10.418 11.367 10.418h0.47266l67.723-1.8945c2.8398 0.003907 5.6836-1.418 7.5742-3.3125z"/>
  <path d="m392.1 513.81c-2.3672-1.8945-5.2109-2.8398-8.5234-2.8398-5.2109 0.47266-10.418 0.47266-15.156 0-3.3164-0.47266-6.1562 0.94531-8.5234 2.8398-2.3672 1.8945-3.3164 4.7344-3.7891 7.5781l-1.8945 67.723c0 6.1562 4.7344 11.367 10.891 11.367h9.9453c4.2617 0 8.0508 0 11.84-0.47266 6.1562-0.47266 10.891-5.6836 10.418-11.367l-1.8945-67.723c0.003907-2.3672-1.418-5.2109-3.3125-7.1055z"/>
  <path d="m600.48 365.11c-0.47266-5.6836-5.2109-10.418-11.367-10.418h-0.47266l-67.723 1.8945c-2.8398 0-5.6836 1.4219-7.5781 3.3164-1.8945 2.3672-3.3164 5.2109-2.8398 8.5234 0.47266 5.2109 0.47266 10.418 0 15.156-0.47266 3.3164 0.94531 6.1562 2.8398 8.5234 1.8945 2.3672 4.7344 3.3164 7.5781 3.7891l68.195 1.8906h0.47266c6.1562 0 10.891-4.7344 11.367-10.418 0-7.5781 0-15.156-0.47266-22.258z"/>
  <path d="m476.4 286.5c1.8945 2.3672 5.2109 3.7891 8.0508 3.7891h0.47266c2.8398 0 5.2109-0.94531 7.5781-2.8398l49.254-46.883c4.2617-4.2617 4.7344-10.891 0.94531-15.629-5.2109-5.6836-10.418-10.891-15.629-15.629-4.2617-3.793-11.367-3.793-15.629 0.46875l-46.883 49.254c-1.8945 2.3672-3.3164 5.2109-2.8398 8.0508 0 2.8398 1.4219 6.1562 3.7891 8.0508 3.7852 3.7891 7.5742 7.1016 10.891 11.367z"/>
  <path d="m376 276.07c-54.934 0-99.926 44.988-99.926 99.926s44.992 99.926 99.926 99.926c54.938 0 99.926-44.988 99.926-99.926 0-54.934-44.988-99.926-99.926-99.926zm0 162.91c-34.57 0-62.984-27.941-62.984-62.984 0-35.047 28.414-62.988 62.984-62.988 34.574 0 62.988 28.414 62.988 62.984 0 34.574-28.414 62.988-62.988 62.988z"/>
 </g>
</svg>
